<svg width="126" height="91" viewBox="0 0 126 91" fill="none" xmlns="http://www.w3.org/2000/svg">
<path d="M33.9173 62.8346C37.1114 62.8346 39.7008 60.2453 39.7008 57.0511C39.7008 53.8569 37.1114 51.2676 33.9173 51.2676C30.7232 51.2676 28.1338 53.8569 28.1338 57.0511C28.1338 60.2453 30.7232 62.8346 33.9173 62.8346Z" fill="#693FAA" stroke="#693FAA" stroke-width="8.67525" stroke-linecap="round" stroke-linejoin="round"/>
<path d="M5 28.134V8.4701C5 6.55362 6.55362 5 8.4701 5H117.2C119.117 5 120.67 6.55362 120.67 8.4701V28.134M5 28.134V82.4989C5 84.4155 6.55362 85.969 8.4701 85.969H117.2C119.117 85.969 120.67 84.4155 120.67 82.4989V28.134M5 28.134H120.67" stroke="#693FAA" stroke-width="8.67525" stroke-linecap="round" stroke-linejoin="round"/>
</svg>
