<?xml version="1.0" encoding="UTF-8"?>
<svg id="Layer_1" data-name="Layer 1" xmlns="http://www.w3.org/2000/svg" viewBox="0 0 131.39 112.03">
  <defs>
    <style>
      .cls-1 {
        fill: none;
        stroke: #693faa;
        stroke-linecap: round;
        stroke-linejoin: round;
        stroke-width: 7.78px;
      }

      .cls-2 {
        fill: #693faa;
      }
    </style>
  </defs>
  <path class="cls-1" d="m22.12,32.51h-.61c-9.73,0-17.62,7.89-17.62,17.62v.04c0,9.73,7.89,17.62,17.62,17.62h0c-2.01-5.24-3.13-10.92-3.13-16.86,0-6.52,1.33-12.74,3.74-18.39h0Z"/>
  <path class="cls-1" d="m109.27,32.51h.61c9.73,0,17.62,7.89,17.62,17.62v.04c0,9.73-7.89,17.62-17.62,17.62h0c2.01-5.24,3.13-10.92,3.13-16.86,0-6.52-1.33-12.74-3.74-18.39h0Z"/>
  <path class="cls-1" d="m63.84,87.65h4.08c3.41,0,6.17,2.76,6.17,6.17v9.92c0,2.43-1.97,4.41-4.41,4.41h-5.84c-5.65,0-10.25-4.6-10.25-10.25h0c0-5.65,4.6-10.25,10.25-10.25Z"/>
  <path class="cls-1" d="m109.27,67.76c2.01-5.24,3.13-10.92,3.13-16.86,0-6.52-1.33-12.74-3.74-18.39-7.16-16.82-23.83-28.62-43.27-28.62S29.27,15.69,22.12,32.51c-2.41,5.65-3.74,11.87-3.74,18.39,0,5.95,1.12,11.62,3.13,16.86"/>
  <path class="cls-1" d="m74.09,97.1c16.16-3.02,29.4-14.33,35.17-29.33"/>
  <circle class="cls-2" cx="45.03" cy="47.63" r="5.5"/>
  <circle class="cls-2" cx="63.84" cy="47.63" r="5.5"/>
  <circle class="cls-2" cx="82.64" cy="47.63" r="5.5"/>
</svg>