<?xml version="1.0" encoding="UTF-8"?>
<svg id="Layer_1" data-name="Layer 1" xmlns="http://www.w3.org/2000/svg" viewBox="0 0 177.84 223.77">
  <defs>
    <style>
      .cls-1 {
        fill: #fff;
      }

      .cls-2 {
        fill: #70aa33;
      }

      .cls-3 {
        fill: #482984;
      }

      .cls-4 {
        fill: #81c83d;
      }

      .cls-5 {
        fill: #693faa;
      }
    </style>
  </defs>
  <path class="cls-3" d="m49.54,138.12c61.08-23.22,76.95-76.51,76.95-76.51l34.24-17.2-8.92-12.07-36.34,18.25s-15.87,53.3-76.95,76.51c-50.09,19.04-45.89,68.65-18.3,88.21-16.57-23.17-13.02-61.1,29.31-77.19Z"/>
  <path class="cls-5" d="m169.86,56.78l-9.14-12.36-34.24,17.2s-15.87,53.3-76.95,76.51C7.2,154.21,3.65,192.14,20.22,215.31c6.05,4.29,13.22,7.14,21.2,7.9,44.34,4.22,106.06-12.13,128.44-166.44Z"/>
  <path class="cls-2" d="m149.12,32.34c6.77-1.55,13.84-8.75,17.78-13.35l1.44-9.8c.34-2.29-.49-4.59-2.21-6.13l-3.04-2.74c-.52-.47-1.31-.42-1.76.1-1.98,2.3-6.91,8.03-7.69,8.95-.08.09-.13.18-.17.29-5.15,12.76-15.92,14.9-22.24,14.97-4.17.05-8.26,1.13-11.86,3.23-22.49,13.16-20.4,27.88-18.68,33.22.3.92,1.48,1.12,2.11.39,2.21-2.55,5.55-4.98,9.22-7.18,16.19-21.04,28.36-19.95,37.11-21.95Z"/>
  <path class="cls-4" d="m166.15,28.59c-.37-.27-.55-.72-.48-1.17l1.24-8.42c-3.95,4.6-11.01,11.8-17.78,13.35-8.75,2-20.92.92-37.11,21.95,6.53-3.91,14.15-7.08,18.5-8.75,1.11-.43,2.1.82,1.47,1.82-16.49,26.2-.65,37.49,4.66,40.36.76.41,1.69-.09,1.79-.96,2.98-24.91,13.72-28.56,15.46-28.99.15-.04.29-.05.44-.03,9.81.97,15.46,16.02,17.69,23.59.35,1.19,2.06,1.16,2.39-.04,10.1-36.77-5.02-50.31-8.26-52.72Z"/>
  <path class="cls-1" d="m46.32,147.61c-12.38,3.96-22.29,14.2-25.75,26.74-.94,3.42,4.37,4.88,5.31,1.46,2.94-10.66,11.35-19.52,21.9-22.89,3.36-1.08,1.93-6.4-1.46-5.31h0Z"/>
  <path class="cls-1" d="m63.09,146.79c1.24-.81,2.55-1.5,3.92-2.08l-.66.28c.72-.3,1.45-.57,2.19-.8.68-.21,1.28-.64,1.65-1.27s.49-1.46.28-2.12-.63-1.31-1.27-1.65-1.41-.5-2.12-.28c-2.37.75-4.68,1.81-6.77,3.16-.6.39-1.07.95-1.27,1.65-.18.66-.1,1.54.28,2.12s.94,1.11,1.65,1.27,1.5.13,2.12-.28h0Z"/>
</svg>