<?xml version="1.0" encoding="UTF-8"?>
<svg id="Layer_1" data-name="Layer 1" xmlns="http://www.w3.org/2000/svg" viewBox="0 0 110 110">
  <defs>
    <style>
      .cls-1 {
        fill: #fff;
      }

      .cls-2 {
        fill: none;
        stroke: #fff;
        stroke-linecap: round;
        stroke-linejoin: round;
        stroke-width: 7.78px;
      }
    </style>
  </defs>
  <circle class="cls-2" cx="55" cy="55" r="51.11"/>
  <path class="cls-1" d="m69.07,73.11c-2.38,2.08-5.39,3.42-9.03,4.01-.6.1-1.04.59-1.04,1.2v2.54c0,.67-.54,1.21-1.21,1.21h-4.93c-.67,0-1.21-.54-1.21-1.21v-2.64c0-.59-.43-1.08-1-1.19-3.88-.76-7.04-2.32-9.49-4.69s-3.71-5.05-4.11-8.36c-.09-.72.48-1.37,1.21-1.37h7.12c.55,0,1.04.37,1.17.91.27,1.13.76,2.14,1.48,3.02.49.61,1.08,1.13,1.75,1.58.8.53,1.87-.08,1.87-1.03v-7.88c0-.56-.39-1.04-.93-1.18-8.32-2.1-12.48-6.51-12.48-13.24,0-3.17,1.22-5.83,3.65-7.98,2.22-1.96,5.13-3.25,8.73-3.86.59-.1,1.03-.6,1.03-1.2v-2.61c0-.67.54-1.21,1.21-1.21h4.93c.67,0,1.21.54,1.21,1.21v2.63c0,.59.43,1.08,1.01,1.19,2.2.43,4.18,1.19,5.95,2.29,2.04,1.26,3.66,2.87,4.87,4.81.96,1.55,1.58,3.22,1.84,5.02.11.74-.46,1.4-1.21,1.4h-7.17c-.55,0-1.04-.38-1.17-.91-.24-.97-.65-1.83-1.21-2.57-.28-.36-.58-.69-.92-.98-.78-.67-1.99-.08-1.99.94v7.87l.74.17c8.83,2.11,13.24,6.58,13.24,13.41,0,3.51-1.3,6.4-3.9,8.68Zm-20.51-26.03c.33.33.76.64,1.31.94.8.44,1.78-.17,1.78-1.08v-4.8c0-.88-.93-1.5-1.72-1.11-.51.26-.94.57-1.28.93-.68.72-1.02,1.6-1.02,2.66s.31,1.84.93,2.46Zm13.75,20.74c.81-.83,1.22-1.83,1.22-3s-.35-2.12-1.05-2.86c-.41-.43-.98-.83-1.71-1.19-.81-.4-1.76.19-1.76,1.09v5.99c0,.89.94,1.5,1.74,1.1.61-.31,1.13-.68,1.57-1.13Z"/>
</svg>